<svg xmlns="http://www.w3.org/2000/svg" xmlns:svg="http://www.w3.org/2000/svg" xmlns:xlink="http://www.w3.org/1999/xlink" id="svg10910" width="171" height="47" version="1.1"><defs id="defs10912"><filter id="filter6174" color-interpolation-filters="sRGB"><feGaussianBlur id="feGaussianBlur6176" stdDeviation=".86"/></filter><linearGradient id="linearGradient6578" x1="432.5" x2="432.5" y1="187.5" y2="146.488" gradientTransform="matrix(0.924138,0,0,0.84909342,29.27935,479.42908)" gradientUnits="userSpaceOnUse" xlink:href="#linearGradient16990"/><linearGradient id="linearGradient16990"><stop id="stop16992" offset="0" stop-color="#729fcf" stop-opacity="1"/><stop id="stop16994" offset=".171" stop-color="#3465a4" stop-opacity="1"/><stop id="stop16996" offset="1" stop-color="#729fcf" stop-opacity="1"/></linearGradient><filter id="filter5469" width="1.079" height="1.488" x="-.039" y="-.244" color-interpolation-filters="sRGB"><feGaussianBlur id="feGaussianBlur5471" stdDeviation="1.236"/></filter><linearGradient id="linearGradient7167" x1="410" x2="410" y1="624" y2="644" gradientTransform="matrix(1,0,0,1.0120023,0,-7.7317286)" gradientUnits="userSpaceOnUse" xlink:href="#linearGradient7161"/><linearGradient id="linearGradient7161"><stop id="stop7163" offset="0" stop-color="#fff" stop-opacity="1"/><stop id="stop7165" offset="1" stop-color="#fff" stop-opacity="0"/></linearGradient><linearGradient id="linearGradient10908" x1="410" x2="410" y1="624" y2="644" gradientTransform="matrix(1,0,0,1.0120023,0,-7.7317286)" gradientUnits="userSpaceOnUse" xlink:href="#linearGradient7161"/></defs><metadata id="metadata10915"/><g id="layer1" transform="translate(-249.24113,-521.39123)"><g id="g7169" transform="matrix(1.2029959,0,0,1.2029959,-173.06116,-203.9108)"><rect id="rect17828" width="136" height="34" x="356.5" y="94.5" fill="#000" fill-opacity="1" fill-rule="nonzero" stroke="#ce5c00" stroke-dasharray="none" stroke-dashoffset="0" stroke-linecap="butt" stroke-linejoin="miter" stroke-miterlimit="4" stroke-opacity="1" stroke-width=".844" color="#000" display="inline" enable-background="accumulate" filter="url(#filter6174)" opacity=".293" overflow="visible" rx="9.843" ry="8.921" transform="matrix(0.985294,0,0,0.9840767,4.24265,513.83154)" visibility="visible" style="marker:none"/><rect stroke-linejoin="miter" style="marker:none" id="rect17808" width="134" height="33.964" x="355.5" y="604.246" fill="url(#linearGradient6578)" fill-opacity="1" fill-rule="nonzero" stroke="#204a87" stroke-dasharray="none" stroke-dashoffset="0" stroke-linecap="butt" stroke-miterlimit="4" stroke-opacity="1" stroke-width=".831" color="#000" display="inline" enable-background="accumulate" overflow="visible" rx="9.699" ry="8.911" visibility="visible"/><path id="path4697" fill="#000" fill-opacity="1" fill-rule="nonzero" stroke="none" stroke-width="1" d="m 383.875,614.5 0,12.125 4.09375,0 c 1.10729,0 1.94855,-0.0856 2.5625,-0.25 0.61394,-0.16993 1.17385,-0.46003 1.65625,-0.84375 0.64135,-0.51528 1.13436,-1.18707 1.46875,-2.03125 0.33985,-0.84417 0.49999,-1.79895 0.5,-2.90625 -10e-6,-2.03917 -0.45957,-3.55934 -1.375,-4.5625 -0.90997,-1.00313 -2.29797,-1.53124 -4.15625,-1.53125 l -4.75,0 z m 45.3125,0 0,12.125 2.40625,0 0,-12.125 -2.40625,0 z m 30.15625,0 0,4.28125 c -0.29602,-0.46045 -0.67003,-0.79005 -1.125,-1.03125 -0.4495,-0.24118 -0.95568,-0.37499 -1.53125,-0.375 -1.07989,10e-6 -1.97104,0.45025 -2.65625,1.34375 -0.67973,0.88804 -1.03125,2.04352 -1.03125,3.46875 0,1.41427 0.35152,2.56592 1.03125,3.4375 0.68521,0.87159 1.58568,1.3125 2.6875,1.3125 0.58105,0 1.07242,-0.13381 1.5,-0.375 0.43305,-0.24667 0.8109,-0.63549 1.15625,-1.15625 l 0,1.21875 2.28125,0 0,-12.125 -2.3125,0 z m -73,2.15625 2.28125,0 c 1.02507,10e-6 1.79886,0.30164 2.28125,0.9375 0.48238,0.63588 0.71874,1.64603 0.71875,3 -10e-6,1.35946 -0.2605,2.32904 -0.78125,2.9375 -0.51528,0.60299 -1.34337,0.90625 -2.5,0.90625 l -2,0 0,-7.78125 z M 400,617.375 c -1.40879,10e-6 -2.5067,0.40035 -3.3125,1.25 -0.80581,0.84967 -1.21875,2.04572 -1.21875,3.53125 0,1.49102 0.41294,2.65034 1.21875,3.5 0.8058,0.84966 1.90371,1.28125 3.3125,1.28125 1.4033,0 2.50669,-0.43159 3.3125,-1.28125 0.81128,-0.84966 1.21874,-2.00898 1.21875,-3.5 -10e-6,-1.48553 -0.40747,-2.68158 -1.21875,-3.53125 -0.80581,-0.84965 -1.9092,-1.24999 -3.3125,-1.25 z m 37.8125,0 c -1.40879,10e-6 -2.5067,0.40035 -3.3125,1.25 -0.80581,0.84967 -1.21875,2.04572 -1.21875,3.53125 0,1.49102 0.41294,2.65034 1.21875,3.5 0.8058,0.84966 1.90371,1.28125 3.3125,1.28125 1.4033,0 2.50669,-0.43159 3.3125,-1.28125 0.81128,-0.84966 1.21874,-2.00898 1.21875,-3.5 -10e-6,-1.48553 -0.40747,-2.68158 -1.21875,-3.53125 -0.80581,-0.84965 -1.9092,-1.24999 -3.3125,-1.25 z m 9.65625,0 c -1.14019,10e-6 -2.04067,0.25502 -2.6875,0.78125 -0.64684,0.52077 -0.96875,1.24082 -0.96875,2.15625 l 0,0.15625 2.25,0 0,-0.125 c 0,-0.3563 0.11736,-0.62063 0.375,-0.8125 0.25763,-0.19185 0.64261,-0.31249 1.125,-0.3125 0.52624,10e-6 0.90025,0.091 1.125,0.25 0.22474,0.15349 0.34374,0.41947 0.34375,0.78125 -10e-6,0.45498 -0.51715,0.74345 -1.53125,0.875 -0.40017,0.0493 -0.72208,0.0866 -0.96875,0.125 -1.07989,0.16446 -1.87233,0.46224 -2.34375,0.90625 -0.46594,0.44402 -0.6875,1.09333 -0.6875,1.9375 0,0.90996 0.22156,1.63165 0.6875,2.125 0.47142,0.49335 1.16514,0.71875 2.03125,0.71875 0.64683,0 1.19963,-0.10256 1.6875,-0.34375 0.48786,-0.24667 0.886,-0.62781 1.1875,-1.09375 0.005,0.21379 0.0186,0.43862 0.0625,0.625 0.0439,0.18638 0.10527,0.34651 0.1875,0.5 l 2.5,0 0,-0.40625 c -0.1809,-0.0932 -0.29827,-0.22535 -0.375,-0.40625 -0.0768,-0.18638 -0.12501,-0.471 -0.125,-0.84375 l 0,-5.09375 c -10e-6,-0.81676 -0.33124,-1.44194 -1,-1.875 -0.66329,-0.43304 -1.62518,-0.62499 -2.875,-0.625 z m -23.375,0.0625 c -0.55914,10e-6 -1.07628,0.12449 -1.53125,0.34375 -0.45498,0.21379 -0.85312,0.53571 -1.1875,0.96875 l 0,-1.0625 -2.34375,0 0,8.9375 2.40625,0 0,-5.3125 c 0,-0.58105 0.1711,-1.04061 0.5,-1.375 0.3289,-0.33986 0.77913,-0.49999 1.34375,-0.5 0.48786,10e-6 0.81746,0.13217 1.03125,0.40625 0.21926,0.27409 0.34374,0.73365 0.34375,1.375 l 0,5.40625 2.375,0 0,-6.09375 c -10e-6,-1.03055 -0.22541,-1.8027 -0.71875,-2.3125 -0.48788,-0.51527 -1.23206,-0.78124 -2.21875,-0.78125 z m -18.875,0.25 2.53125,8.9375 2.40625,0 1.375,-6.40625 1.4375,6.40625 2.375,0 2.53125,-8.9375 -2.34375,0 -1.4375,6.1875 -1.3125,-6.1875 -2.4375,0 -1.25,6.1875 -1.4375,-6.1875 -2.4375,0 z M 400,619.375 c 0.66876,10e-6 1.16945,0.23637 1.53125,0.71875 0.36178,0.47691 0.56249,1.17996 0.5625,2.0625 -10e-6,0.88803 -0.19524,1.54887 -0.5625,2.03125 -0.3618,0.48239 -0.86797,0.71875 -1.53125,0.71875 -0.67425,0 -1.19523,-0.23636 -1.5625,-0.71875 -0.36179,-0.48238 -0.53125,-1.14322 -0.53125,-2.03125 0,-0.88254 0.16946,-1.58559 0.53125,-2.0625 0.36727,-0.48238 0.88825,-0.71874 1.5625,-0.71875 z m 37.8125,0 c 0.66876,10e-6 1.2007,0.23637 1.5625,0.71875 0.36178,0.47691 0.53124,1.17996 0.53125,2.0625 -10e-6,0.88803 -0.19524,1.54887 -0.5625,2.03125 -0.3618,0.48239 -0.86797,0.71875 -1.53125,0.71875 -0.67425,0 -1.19523,-0.23636 -1.5625,-0.71875 -0.36179,-0.48238 -0.53125,-1.14322 -0.53125,-2.03125 0,-0.88254 0.16946,-1.58559 0.53125,-2.0625 0.36727,-0.48238 0.88825,-0.71874 1.5625,-0.71875 z m 19.53125,0.0625 c 0.63587,10e-6 1.11792,0.2583 1.46875,0.71875 0.35082,0.45498 0.53124,1.09333 0.53125,1.9375 -10e-6,0.90996 -0.16562,1.59108 -0.5,2.0625 -0.33439,0.47143 -0.83288,0.71875 -1.46875,0.71875 -0.64136,0 -1.12889,-0.24732 -1.46875,-0.71875 -0.33987,-0.4769 -0.5,-1.15802 -0.5,-2.0625 0,-0.82225 0.15465,-1.47155 0.5,-1.9375 0.34534,-0.47142 0.83999,-0.71874 1.4375,-0.71875 z m -8.28125,2.78125 0,0.84375 c -10e-6,0.6304 -0.18975,1.13273 -0.5625,1.5 -0.36728,0.36179 -0.88442,0.5625 -1.53125,0.5625 -0.36179,0 -0.66122,-0.12064 -0.875,-0.3125 -0.21379,-0.19734 -0.3125,-0.45235 -0.3125,-0.78125 0,-0.31793 0.0856,-0.5691 0.25,-0.75 0.16993,-0.18089 0.48416,-0.3169 0.90625,-0.4375 0.0164,-0.005 0.27693,-0.0779 0.78125,-0.1875 0.50979,-0.10963 0.95455,-0.2566 1.34375,-0.4375 z" color="#000" direction="ltr" display="inline" enable-background="accumulate" filter="url(#filter5469)" font-family="Myriad" font-size="16.84" font-stretch="normal" font-style="normal" font-variant="normal" font-weight="normal" letter-spacing="normal" opacity=".567" overflow="visible" text-anchor="start" text-decoration="none" transform="translate(0,2)" visibility="visible" word-spacing="normal" writing-mode="lr-tb" xlink:href="#text17742" style="text-indent:0;text-align:start;line-height:125%;text-transform:none;block-progression:tb;marker:none"/><text id="text17742" x="382.64" y="626.623" fill="#fff" fill-opacity="1" fill-rule="nonzero" stroke="none" stroke-width="1" color="#000" direction="ltr" display="inline" enable-background="accumulate" font-family="Swis721 BT" font-size="16.84" font-stretch="normal" font-style="normal" font-variant="normal" font-weight="bold" letter-spacing="normal" overflow="visible" text-anchor="start" text-decoration="none" transform="scale(0.99961594,1.0003842)" visibility="visible" word-spacing="normal" writing-mode="lr-tb" xml:space="preserve" style="text-indent:0;text-align:start;line-height:125%;text-transform:none;block-progression:tb;marker:none;-inkscape-font-specification:Swis721 BT Bold"><tspan font-style="normal" style="text-align:start;line-height:125%;-inkscape-font-specification:Swis721 BT Bold" id="tspan17746" x="382.64" y="626.623" font-family="Swis721 BT" font-size="16.84" font-stretch="normal" font-variant="normal" font-weight="bold" text-anchor="start" writing-mode="lr-tb">Download</tspan></text><path id="path6162" fill="none" stroke="url(#linearGradient10908)" stroke-dashoffset="0" stroke-linecap="butt" stroke-linejoin="miter" stroke-miterlimit="4" stroke-opacity="1" stroke-width=".831" d="m 364.71875,605.03566 c -4.61272,0 -8.21875,3.39721 -8.21875,7.55839 l 0,17.26729 c 0,4.1612 3.60602,7.55839 8.21875,7.55839 l 115.5625,0 c 4.61272,0 8.21875,-3.39721 8.21875,-7.55839 l 0,-17.26729 c 0,-4.1612 -3.60602,-7.55839 -8.21875,-7.55839 l -115.5625,0 z" color="#000" display="inline" enable-background="accumulate" opacity=".446" overflow="visible" visibility="visible" style="marker:none"/></g></g></svg>