<svg xmlns="http://www.w3.org/2000/svg" xmlns:svg="http://www.w3.org/2000/svg" xmlns:xlink="http://www.w3.org/1999/xlink" id="svg2" width="980" height="600" version="1.0"><defs id="defs4"><linearGradient id="linearGradient3724"><stop id="stop3726" offset="0" stop-color="#4e831a" stop-opacity="1"/><stop id="stop3728" offset=".063" stop-color="#5d9d22" stop-opacity="1"/><stop id="stop3730" offset=".852" stop-color="#7bbe3f" stop-opacity="1"/><stop id="stop3732" offset="1" stop-color="#6ebc27" stop-opacity="1"/></linearGradient><linearGradient id="linearGradient3716"><stop id="stop3718" offset="0" stop-color="#000" stop-opacity=".308"/><stop id="stop3720" offset="1" stop-color="#000" stop-opacity="0"/></linearGradient><radialGradient id="XMLID_3_" cx="231.115" cy="439.8" r="455.565" gradientUnits="userSpaceOnUse"><stop id="stop3599" offset="0" stop-color="#FFC40C"/><stop id="stop3601" offset=".13" stop-color="#FAA21B"/><stop id="stop3603" offset=".276" stop-color="#F5831F"/><stop id="stop3605" offset=".424" stop-color="#F26721"/><stop id="stop3607" offset=".57" stop-color="#F04D23"/><stop id="stop3609" offset=".716" stop-color="#EE3624"/><stop id="stop3611" offset=".86" stop-color="#ED2424"/><stop id="stop3613" offset="1" stop-color="#ED1C24"/></radialGradient><linearGradient id="linearGradient3491"><stop id="stop3493" offset="0" stop-color="#458f2c" stop-opacity="1"/><stop id="stop3495" offset=".089" stop-color="#77c952" stop-opacity="1"/><stop id="stop3497" offset=".96" stop-color="#307e27" stop-opacity="1"/><stop id="stop3499" offset="1" stop-color="#2e6d22" stop-opacity="1"/></linearGradient><linearGradient id="linearGradient3453"><stop id="stop3455" offset="0" stop-color="#070e17" stop-opacity="1"/><stop id="stop3457" offset="1" stop-color="#112338" stop-opacity="1"/></linearGradient><linearGradient id="linearGradient3342"><stop id="stop3344" offset="0" stop-color="#234776" stop-opacity="1"/><stop id="stop3354" offset=".093" stop-color="#2b5891" stop-opacity="1"/><stop id="stop3346" offset="1" stop-color="#3972c0" stop-opacity="1"/></linearGradient><linearGradient id="linearGradient3334"><stop id="stop3336" offset="0" stop-color="#000" stop-opacity="1"/><stop id="stop3338" offset="1" stop-color="#264c7a" stop-opacity="1"/></linearGradient><linearGradient id="linearGradient4130"><stop id="stop4132" offset="0" stop-color="#fff" stop-opacity="1"/><stop id="stop3302" offset=".685" stop-color="#d7e4f3" stop-opacity="1"/><stop id="stop4136" offset="1" stop-color="#fff" stop-opacity="1"/></linearGradient><linearGradient id="linearGradient3933"><stop id="stop3935" offset="0" stop-color="#000" stop-opacity="1"/><stop id="stop3937" offset="1" stop-color="#000" stop-opacity="0"/></linearGradient><linearGradient id="linearGradient3893"><stop id="stop3895" offset="0" stop-color="#22426e" stop-opacity="1"/><stop id="stop3909" offset=".185" stop-color="#234471" stop-opacity="1"/><stop id="stop3897" offset="1" stop-color="#0e1c2f" stop-opacity="1"/></linearGradient><linearGradient id="linearGradient3858"><stop id="stop3860" offset="0" stop-color="#fafafa" stop-opacity="1"/><stop id="stop3862" offset="1" stop-color="#dcdcdc" stop-opacity="1"/></linearGradient><linearGradient id="linearGradient3816"><stop id="stop3818" offset="0" stop-color="#fff" stop-opacity="1"/><stop id="stop3820" offset="1" stop-color="#fff" stop-opacity="0"/></linearGradient><linearGradient id="linearGradient3508"><stop id="stop3510" offset="0" stop-color="#fff" stop-opacity="1"/><stop id="stop3512" offset=".37" stop-color="#dfdfdf" stop-opacity="1"/><stop id="stop3514" offset="1" stop-color="#fbfbfb" stop-opacity="1"/></linearGradient><linearGradient id="linearGradient3450"><stop id="stop3452" offset="0" stop-color="#fff" stop-opacity=".385"/><stop id="stop3454" offset="1" stop-color="#fff" stop-opacity="0"/></linearGradient><linearGradient id="linearGradient3239"><stop id="stop3241" offset="0" stop-color="#000" stop-opacity=".392"/><stop id="stop3245" offset=".5" stop-color="#000" stop-opacity=".706"/><stop id="stop3243" offset="1" stop-color="#000" stop-opacity=".392"/></linearGradient><linearGradient id="linearGradient3229"><stop id="stop3231" offset="0" stop-color="#102035" stop-opacity="0"/><stop id="stop3233" offset="1" stop-color="#1d395c" stop-opacity="1"/></linearGradient><linearGradient id="linearGradient3217"><stop id="stop3219" offset="0" stop-color="#eaeaea" stop-opacity="1"/><stop id="stop3247" offset=".204" stop-color="#fff" stop-opacity="1"/><stop id="stop3221" offset="1" stop-color="#e1e1e1" stop-opacity="1"/></linearGradient><linearGradient id="linearGradient3207"><stop id="stop3209" offset="0" stop-color="#2c588f" stop-opacity="1"/><stop id="stop4033" offset=".089" stop-color="#5287c9" stop-opacity="1"/><stop id="stop4035" offset=".96" stop-color="#274e7e" stop-opacity="1"/><stop id="stop3211" offset="1" stop-color="#32639f" stop-opacity="1"/></linearGradient><linearGradient id="linearGradient3199"><stop id="stop3201" offset="0" stop-color="#4e831a" stop-opacity="1"/><stop id="stop3503" offset=".063" stop-color="#5d9d22" stop-opacity="1"/><stop id="stop3505" offset=".852" stop-color="#7bbe3f" stop-opacity="1"/><stop id="stop3203" offset="1" stop-color="#6ebc27" stop-opacity="1"/></linearGradient><linearGradient id="linearGradient3223" x1="451" x2="451" y1="119.996" y2="240.005" gradientTransform="matrix(1,0,0,2.5,0,-180)" gradientUnits="userSpaceOnUse" xlink:href="#linearGradient3217"/><linearGradient id="linearGradient3227" x1="367" x2="367" y1="120.067" y2="-.004" gradientTransform="matrix(1,0,0,7.5e-2,0,114)" gradientUnits="userSpaceOnUse" xlink:href="#linearGradient3229"/><linearGradient id="linearGradient3558" x1="59" x2="59" y1="18.038" y2="101.962" gradientTransform="matrix(1.3407913,0,0,1.3406429,-20.386842,-10.095903)" gradientUnits="userSpaceOnUse" xlink:href="#linearGradient3508"/><linearGradient id="linearGradient3560" x1="59" x2="59" y1="18.038" y2="101.962" gradientTransform="matrix(1.8897476,0,0,1.8897476,62.754902,-140.51274)" gradientUnits="userSpaceOnUse" xlink:href="#linearGradient3508"/><linearGradient id="linearGradient3638" x1="59" x2="59" y1="18.038" y2="101.962" gradientTransform="matrix(1.3407913,0,0,1.3406429,-20.386842,-10.095903)" gradientUnits="userSpaceOnUse" xlink:href="#linearGradient3508"/><linearGradient id="linearGradient3640" x1="59" x2="59" y1="18.038" y2="101.962" gradientTransform="matrix(1.8897476,0,0,1.8897476,62.754902,-140.51274)" gradientUnits="userSpaceOnUse" xlink:href="#linearGradient3508"/><linearGradient id="linearGradient3646" x1="59" x2="59" y1="18.038" y2="101.962" gradientTransform="matrix(1.8897476,0,0,1.8897476,62.754902,-140.51274)" gradientUnits="userSpaceOnUse" xlink:href="#linearGradient3508"/><linearGradient id="linearGradient3655" x1="59" x2="59" y1="18.038" y2="101.962" gradientTransform="matrix(1.3407913,0,0,1.3406429,-20.386842,-10.095903)" gradientUnits="userSpaceOnUse" xlink:href="#linearGradient3508"/><linearGradient id="linearGradient3657" x1="59" x2="59" y1="18.038" y2="101.962" gradientTransform="matrix(1.8897476,0,0,1.8897476,62.754902,-140.51274)" gradientUnits="userSpaceOnUse" xlink:href="#linearGradient3508"/><linearGradient id="linearGradient3663" x1="59" x2="59" y1="18.038" y2="101.962" gradientTransform="matrix(1.8897476,0,0,1.8897476,70.754902,-140.51274)" gradientUnits="userSpaceOnUse" xlink:href="#linearGradient3508"/><linearGradient id="linearGradient3666" x1="59" x2="59" y1="18.038" y2="101.962" gradientTransform="matrix(1.3407913,0,0,1.3406429,-20.386842,-10.095903)" gradientUnits="userSpaceOnUse" xlink:href="#linearGradient3508"/><linearGradient id="linearGradient3701" x1="59" x2="59" y1="18.038" y2="101.962" gradientTransform="matrix(1.3407913,0,0,1.3406429,-20.386842,-10.095903)" gradientUnits="userSpaceOnUse" xlink:href="#linearGradient3508"/><linearGradient id="linearGradient3703" x1="59" x2="59" y1="18.038" y2="101.962" gradientTransform="matrix(1.8897476,0,0,1.8897476,70.754902,-140.51274)" gradientUnits="userSpaceOnUse" xlink:href="#linearGradient3508"/><linearGradient id="linearGradient3709" x1="59" x2="59" y1="18.038" y2="101.962" gradientTransform="matrix(1.8897476,0,0,1.8897476,70.754902,-140.51274)" gradientUnits="userSpaceOnUse" xlink:href="#linearGradient3508"/><linearGradient id="linearGradient3713" x1="59" x2="59" y1="18.038" y2="101.962" gradientTransform="matrix(1.3407913,0,0,1.3406429,-20.386842,-10.095903)" gradientUnits="userSpaceOnUse" xlink:href="#linearGradient3508"/><linearGradient id="linearGradient3732" x1="59" x2="59" y1="18.038" y2="101.962" gradientTransform="matrix(1.3407913,0,0,1.3406429,-20.386842,-10.095903)" gradientUnits="userSpaceOnUse" xlink:href="#linearGradient3508"/><linearGradient id="linearGradient3734" x1="59" x2="59" y1="18.038" y2="101.962" gradientTransform="matrix(1.8897476,0,0,1.8897476,70.754902,-140.51274)" gradientUnits="userSpaceOnUse" xlink:href="#linearGradient3508"/><linearGradient id="linearGradient3744" x1="59" x2="59" y1="18.038" y2="101.962" gradientTransform="matrix(1.3407913,0,0,1.3406429,-20.386842,-10.095903)" gradientUnits="userSpaceOnUse" xlink:href="#linearGradient3508"/><linearGradient id="linearGradient3746" x1="59" x2="59" y1="18.038" y2="101.962" gradientTransform="matrix(1.8897476,0,0,1.8897476,70.754902,-140.51274)" gradientUnits="userSpaceOnUse" xlink:href="#linearGradient3508"/><linearGradient id="linearGradient3749" x1="59" x2="59" y1="18.038" y2="101.962" gradientTransform="matrix(1.8897476,0,0,1.8897476,70.754902,-140.51274)" gradientUnits="userSpaceOnUse" xlink:href="#linearGradient3508"/><linearGradient id="linearGradient3753" x1="59" x2="59" y1="18.038" y2="101.962" gradientTransform="matrix(1.3407913,0,0,1.3406429,-20.386842,-10.095903)" gradientUnits="userSpaceOnUse" xlink:href="#linearGradient3508"/><linearGradient id="linearGradient3781" x1="59" x2="59" y1="18.038" y2="101.962" gradientTransform="matrix(1.3407913,0,0,1.3406429,-20.386842,-10.095903)" gradientUnits="userSpaceOnUse" xlink:href="#linearGradient3508"/><linearGradient id="linearGradient3783" x1="59" x2="59" y1="18.038" y2="101.962" gradientTransform="matrix(1.8897476,0,0,1.8897476,70.754902,-140.51274)" gradientUnits="userSpaceOnUse" xlink:href="#linearGradient3508"/><linearGradient id="linearGradient3789" x1="59" x2="59" y1="18.038" y2="101.962" gradientTransform="matrix(1.8897476,0,0,1.8897476,70.754902,-140.51274)" gradientUnits="userSpaceOnUse" xlink:href="#linearGradient3508"/><linearGradient id="linearGradient3793" x1="59" x2="59" y1="18.038" y2="101.962" gradientTransform="matrix(1.3407913,0,0,1.3406429,-20.386842,-10.095903)" gradientUnits="userSpaceOnUse" xlink:href="#linearGradient3508"/><linearGradient id="linearGradient3810" x1="59" x2="59" y1="18.038" y2="101.962" gradientTransform="matrix(1.3407913,0,0,1.3406429,-20.386842,-10.095903)" gradientUnits="userSpaceOnUse" xlink:href="#linearGradient3508"/><linearGradient id="linearGradient3812" x1="59" x2="59" y1="18.038" y2="101.962" gradientTransform="matrix(1.8897476,0,0,1.8897476,70.754902,-140.51274)" gradientUnits="userSpaceOnUse" xlink:href="#linearGradient3508"/><radialGradient id="radialGradient3822" cx="531.5" cy="378" r="112.5" fx="531.5" fy="378" gradientTransform="matrix(1,0,0,0.1866667,0,307.44)" gradientUnits="userSpaceOnUse" xlink:href="#linearGradient3816"/><clipPath id="clipPath3846" clipPathUnits="userSpaceOnUse"><path id="path3848" fill="url(#radialGradient3850)" fill-opacity="1" stroke="none" stroke-dasharray="none" stroke-miterlimit="4" stroke-opacity=".308" stroke-width="1" d="M 644,378 A 112.5,21 0 1 1 419,378 A 112.5,21 0 1 1 644,378 z" opacity=".8" transform="matrix(3.5244445,0,0,4.8571429,-1423.2423,-1423)"/></clipPath><radialGradient id="radialGradient3850" cx="531.5" cy="378" r="112.5" fx="531.5" fy="378" gradientTransform="matrix(1,0,0,0.1866667,0,307.44)" gradientUnits="userSpaceOnUse" xlink:href="#linearGradient3816"/><radialGradient id="radialGradient3854" cx="451" cy="762" r="396.5" fx="451" fy="762" gradientTransform="matrix(1,0,0,0.274917,0,210.5133)" gradientUnits="userSpaceOnUse" xlink:href="#linearGradient3816"/><linearGradient id="linearGradient3888" x1="451" x2="451" y1="119.996" y2="240.005" gradientTransform="matrix(1.0888889,0,0,3.3333333,0,-280)" gradientUnits="userSpaceOnUse" xlink:href="#linearGradient3858"/><linearGradient id="linearGradient3939" x1="126.157" x2="126.157" y1="13" y2="58.378" gradientUnits="userSpaceOnUse" xlink:href="#linearGradient3933"/><linearGradient id="linearGradient3989" x1="59" x2="59" y1="18.038" y2="101.962" gradientTransform="matrix(0.9236562,0,0,0.923554,-10.261946,-3.6639833)" gradientUnits="userSpaceOnUse" xlink:href="#linearGradient3508"/><linearGradient id="linearGradient3991" x1="59" x2="59" y1="18.038" y2="101.962" gradientTransform="matrix(1.3018261,0,0,1.3018261,49.524589,-95.506693)" gradientUnits="userSpaceOnUse" xlink:href="#linearGradient3508"/><linearGradient id="linearGradient3993" x1="126.157" x2="126.157" y1="13" y2="58.378" gradientUnits="userSpaceOnUse" xlink:href="#linearGradient3933"/><linearGradient id="linearGradient3995" x1="126.157" x2="126.157" y1="13" y2="58.378" gradientUnits="userSpaceOnUse" xlink:href="#linearGradient3933"/><linearGradient id="linearGradient3997" x1="126.157" x2="126.157" y1="13" y2="58.378" gradientUnits="userSpaceOnUse" xlink:href="#linearGradient3933"/><linearGradient id="linearGradient3999" x1="126.157" x2="126.157" y1="13" y2="58.378" gradientUnits="userSpaceOnUse" xlink:href="#linearGradient3933"/><linearGradient id="linearGradient4001" x1="126.157" x2="126.157" y1="13" y2="58.378" gradientUnits="userSpaceOnUse" xlink:href="#linearGradient3933"/><linearGradient id="linearGradient4031" x1="127" x2="127" y1="94" y2="154.299" gradientTransform="matrix(3.8054968e-2,0,0,1,75.038055,51)" gradientUnits="userSpaceOnUse" xlink:href="#linearGradient3207"/><linearGradient id="linearGradient4047" x1="59" x2="59" y1="18.038" y2="101.962" gradientTransform="matrix(0.9236562,0,0,0.923554,-210.34685,-205.66398)" gradientUnits="userSpaceOnUse" xlink:href="#linearGradient3508"/><linearGradient id="linearGradient4049" x1="59" x2="59" y1="18.038" y2="101.962" gradientTransform="matrix(1.3018261,0,0,1.3018261,49.524589,-95.506693)" gradientUnits="userSpaceOnUse" xlink:href="#linearGradient3508"/><linearGradient id="linearGradient4055" x1="59" x2="59" y1="18.038" y2="101.962" gradientTransform="matrix(1.3018261,0,0,1.3018261,-330.39798,-108.52178)" gradientUnits="userSpaceOnUse" xlink:href="#linearGradient3508"/><linearGradient id="linearGradient4067" x1="126.157" x2="126.157" y1="13" y2="58.378" gradientTransform="translate(1.9150918,1.0000001)" gradientUnits="userSpaceOnUse" xlink:href="#linearGradient3933"/><linearGradient id="linearGradient4075" x1="126.157" x2="126.157" y1="13" y2="58.378" gradientUnits="userSpaceOnUse" xlink:href="#linearGradient3933"/><linearGradient id="linearGradient4077" x1="126.157" x2="126.157" y1="13" y2="58.378" gradientUnits="userSpaceOnUse" xlink:href="#linearGradient3933"/><linearGradient id="linearGradient4079" x1="126.157" x2="126.157" y1="13" y2="58.378" gradientUnits="userSpaceOnUse" xlink:href="#linearGradient3933"/><linearGradient id="linearGradient4084" x1="126.157" x2="126.157" y1="13" y2="58.378" gradientTransform="translate(1.9150918,29.25688)" gradientUnits="userSpaceOnUse" xlink:href="#linearGradient3933"/><linearGradient id="linearGradient4087" x1="126.157" x2="126.157" y1="13" y2="58.378" gradientTransform="translate(1.9150918,38.25688)" gradientUnits="userSpaceOnUse" xlink:href="#linearGradient3933"/><linearGradient id="linearGradient4091" x1="59" x2="59" y1="18.038" y2="101.962" gradientTransform="matrix(0.9236562,0,0,0.923554,-210.34685,-205.66398)" gradientUnits="userSpaceOnUse" xlink:href="#linearGradient3508"/><linearGradient id="linearGradient4094" x1="59" x2="59" y1="18.038" y2="101.962" gradientTransform="matrix(0.9236562,0,0,0.923554,-82.34685,-177.66398)" gradientUnits="userSpaceOnUse" xlink:href="#linearGradient3508"/><linearGradient id="linearGradient4112" x1="59" x2="59" y1="18.038" y2="101.962" gradientTransform="matrix(1.3018261,0,0,1.3018261,-330.39798,-108.52178)" gradientUnits="userSpaceOnUse" xlink:href="#linearGradient3508"/><linearGradient id="linearGradient4115" x1="59" x2="59" y1="18.038" y2="101.962" gradientTransform="matrix(1.3018261,0,0,1.3018261,-330.39798,-108.52178)" gradientUnits="userSpaceOnUse" xlink:href="#linearGradient3508"/><linearGradient id="linearGradient4128" x1="-292.659" x2="-292.659" y1="37.359" y2="-9.107" gradientUnits="userSpaceOnUse" xlink:href="#linearGradient4130"/><linearGradient id="linearGradient3293" x1="-292.659" x2="-292.659" y1="37.359" y2="-9.107" gradientTransform="matrix(1.0767723,0,0,1.0767723,379.84497,28.772813)" gradientUnits="userSpaceOnUse" xlink:href="#linearGradient4130"/><linearGradient id="linearGradient3296" x1="-292.659" x2="-292.659" y1="37.359" y2="-9.107" gradientTransform="matrix(1.0767723,0,0,1.0767723,379.84497,28.772813)" gradientUnits="userSpaceOnUse" xlink:href="#linearGradient4130"/><filter id="filter3328"><feGaussianBlur id="feGaussianBlur3330" stdDeviation="1.542"/></filter><linearGradient id="linearGradient3340" x1="192" x2="192" y1="134" y2="188.148" gradientTransform="matrix(0.2916667,0,0,1,129.625,0)" gradientUnits="userSpaceOnUse" xlink:href="#linearGradient3342"/><linearGradient id="linearGradient3451" x1="127" x2="127" y1="94" y2="154.299" gradientTransform="matrix(3.8054968e-2,0,0,7.2833334,75.038055,-485.63334)" gradientUnits="userSpaceOnUse" xlink:href="#linearGradient3453"/><linearGradient id="linearGradient3489" x1="127" x2="127" y1="94" y2="154.299" gradientTransform="matrix(2.5369978e-2,0,0,3.3333333,-327.97463,225.66667)" gradientUnits="userSpaceOnUse" xlink:href="#linearGradient3199"/><radialGradient id="radialGradient3665" cx="231.115" cy="439.8" r="455.565" gradientUnits="userSpaceOnUse"><stop id="stop3667" offset="0" stop-color="#FFC40C"/><stop id="stop3669" offset=".13" stop-color="#FAA21B"/><stop id="stop3671" offset=".276" stop-color="#F5831F"/><stop id="stop3673" offset=".424" stop-color="#F26721"/><stop id="stop3675" offset=".57" stop-color="#F04D23"/><stop id="stop3677" offset=".716" stop-color="#EE3624"/><stop id="stop3679" offset=".86" stop-color="#ED2424"/><stop id="stop3681" offset="1" stop-color="#ED1C24"/></radialGradient><linearGradient id="linearGradient3696" x1="-175.418" x2="-175.418" y1="900.558" y2="434.319" gradientTransform="matrix(0,0.4213252,-0.4213252,0,-15.75245,439.09441)" gradientUnits="userSpaceOnUse" xlink:href="#linearGradient3933"/><linearGradient id="linearGradient3700" x1="127" x2="127" y1="94" y2="154.299" gradientTransform="matrix(0.5073996,0,0,3.3333333,-344.4926,-57.33333)" gradientUnits="userSpaceOnUse" xlink:href="#linearGradient3199"/><clipPath id="clipPath3710" clipPathUnits="userSpaceOnUse"><rect id="rect3712" width="240" height="200" x="-345" y="256" fill="url(#linearGradient3714)" fill-opacity="1" stroke="none" stroke-dasharray="none" stroke-miterlimit="4" stroke-opacity=".308" stroke-width="1" opacity="1"/></clipPath><linearGradient id="linearGradient3714" x1="127" x2="127" y1="94" y2="154.299" gradientTransform="matrix(0.5073996,0,0,3.3333333,-344.4926,-57.33333)" gradientUnits="userSpaceOnUse" xlink:href="#linearGradient3199"/><linearGradient id="linearGradient3722" x1="-218.14" x2="-211.02" y1="435.05" y2="782.814" gradientTransform="matrix(0,0.4213252,-0.4213252,0,-15.75245,439.09441)" gradientUnits="userSpaceOnUse" xlink:href="#linearGradient3450"/><linearGradient id="linearGradient3735" x1="127" x2="127" y1="94" y2="154.299" gradientTransform="matrix(0.3319239,0,0,3.3333333,-344.66808,-57.33333)" gradientUnits="userSpaceOnUse" xlink:href="#linearGradient3199"/><filter id="filter4115"><feGaussianBlur id="feGaussianBlur4117" stdDeviation="4.873"/></filter><filter id="filter4179"><feGaussianBlur id="feGaussianBlur4181" stdDeviation="2.437"/></filter></defs><metadata id="metadata7"/><g id="BackgroundLayer"><rect id="rect3882" width="980" height="400" x="0" y="120" fill="url(#linearGradient3888)" fill-opacity="1" stroke="none" stroke-dasharray="none" stroke-miterlimit="4" stroke-opacity="1" stroke-width="1" opacity="0"/></g><g id="layer2"><rect id="rect3880" width="1.089" height="600" x="0" y="0" fill="#000" fill-opacity="1" stroke="none" stroke-dasharray="none" stroke-miterlimit="4" stroke-opacity=".308" stroke-width="1" opacity="0"/><rect id="rect3890" width="168" height="85" x="0" y="0" fill="#4e9a06" fill-opacity="1" stroke="none" stroke-dasharray="none" stroke-miterlimit="4" stroke-opacity=".308" stroke-width="1" opacity="0"/></g><g id="layer1"><rect id="rect3449" width="18" height="437" x="75" y="199" fill="url(#linearGradient3451)" fill-opacity="1" stroke="none" stroke-dasharray="none" stroke-miterlimit="4" stroke-opacity=".308" stroke-width="1" opacity="1"/><g id="g3310" fill="#000" fill-opacity=".627" filter="url(#filter3328)" transform="translate(4,0)"><path id="path3312" fill="#000" fill-opacity=".627" stroke="none" stroke-dasharray="none" stroke-miterlimit="4" stroke-opacity=".308" stroke-width="1" d="M 26.673659,19.001472 C 23.755487,18.975285 20.648493,19.289158 18.083234,20.685869 L 25.017335,22.089534 L 12.131698,20.489356 C 11.106439,20.374637 10.270928,21.663287 9.7735453,22.39834 C 9.0548213,23.460624 8.4119882,24.848881 8.4541008,26.16016 C 8.5230681,28.31043 10.499074,30.061111 12.103627,31.241425 C 14.205228,32.787118 16.8025,33.775572 19.121953,34.9471 L 12.019402,32.027478 L 1.3796314,35.283979 C -1.2360854,45.357998 -0.30714315,56.872758 5.6748438,69 L 17.605987,54.542256 L 39.61545,63.974881 C 40.964172,64.538186 41.712464,62.722185 42.226267,61.813238 C 43.141114,60.194937 43.934739,58.493995 44.528277,56.731972 C 36.482645,51.956316 34.056925,45.61495 34.056936,45.61495 C 37.436483,50.262966 41.496388,53.131427 45.033596,54.907208 C 46.025712,51.064867 45.975071,47.029448 45.258178,43.1445 C 44.991752,41.7001 44.624045,40.272198 44.163327,38.87736 C 43.897052,38.071196 43.61189,36.659601 42.703514,36.350764 L 35.965924,34.104901 L 44.275613,35.648932 C 47.167231,36.125206 45.645095,27.867058 45.230107,26.525113 C 44.73057,24.910122 43.92536,23.38156 42.507003,22.39834 C 41.205519,21.495862 39.640097,21.017583 38.127566,20.601649 C 34.810698,19.68973 31.345785,19.156688 27.908889,19.029545 C 27.501072,19.014462 27.090553,19.005209 26.673659,19.001472 z" opacity="1"/><path id="path3314" fill="#000" fill-opacity=".627" stroke="none" stroke-opacity="1" d="M 148.81135,33.171015 L 148.81135,33.775986 L 149.85996,33.775986 L 149.85996,36.599185 L 150.58593,36.599185 L 150.58593,33.775986 L 151.67488,33.775986 L 151.67488,33.171015 L 148.81135,33.171015 z M 152.11853,33.171015 L 152.11853,36.599185 L 152.80417,36.599185 L 152.80417,33.937312 L 153.53012,36.599185 L 154.21577,36.599185 L 154.94173,33.937312 L 154.94173,36.599185 L 155.62736,36.599185 L 155.62736,33.171015 L 154.49808,33.171015 L 153.85277,35.510237 L 153.20748,33.171015 L 152.11853,33.171015 z M 68.713164,36.599185 C 65.596361,36.599185 63.935881,38.240421 63.147425,39.382053 L 63.026428,39.382053 L 62.824771,37.002499 L 57.944677,37.002499 C 58.019728,38.572094 58.105999,40.392239 58.105999,42.568235 L 58.105999,54.466001 L 63.671738,54.466001 L 63.671738,44.302486 C 63.671738,43.839223 63.72605,43.359173 63.913721,42.931218 C 64.251795,42.075262 65.111038,40.995307 66.575588,40.99531 C 68.415469,40.99531 69.237466,42.488928 69.237466,44.665468 L 69.237466,54.466001 L 74.803206,54.466001 L 74.803206,44.262155 C 74.803206,43.833622 74.851929,43.28328 74.964528,42.890886 C 75.377653,41.857099 76.274432,40.995307 77.626406,40.99531 C 79.466286,40.99531 80.328609,42.455304 80.328609,44.98812 L 80.328609,54.466001 L 85.894348,54.466001 L 85.894348,44.181491 C 85.894348,38.973576 83.253262,36.599181 79.723635,36.599185 C 78.37193,36.599185 77.228431,36.951237 76.2148,37.486476 C 75.313208,37.986147 74.508299,38.696676 73.794927,39.624042 L 73.714255,39.624042 C 72.925541,37.804598 71.116294,36.599189 68.713164,36.599185 z M 99.203717,36.599185 C 93.270949,36.599188 89.362847,40.238963 89.362847,45.875411 C 89.362836,51.510736 93.471465,54.828984 98.840726,54.828984 L 98.881062,54.828984 C 103.76212,54.828984 108.52027,51.902319 108.52027,45.55276 C 108.52027,40.273427 104.79871,36.599185 99.203717,36.599185 z M 122.91858,36.599185 C 119.83933,36.599185 117.98275,38.280758 117.23186,39.422385 L 117.1512,39.422385 L 116.86888,37.002499 L 111.90811,37.002499 C 111.98345,38.572094 112.06944,40.392239 112.06943,42.568235 L 112.06943,54.466001 L 117.75617,54.466001 L 117.79649,44.383149 C 117.79649,43.883477 117.80795,43.408768 117.95783,43.052212 C 118.37039,42.052599 119.32488,40.995306 120.90201,40.99531 C 122.96708,40.99531 123.76555,42.539329 123.76555,44.786463 L 123.76555,54.466001 L 129.4926,54.466001 L 129.4926,44.14116 C 129.4926,39.004383 126.67343,36.599189 122.91858,36.599185 z M 142.8423,36.599185 C 136.90981,36.599188 133.00143,40.238963 133.00143,45.875411 C 133.00143,51.510736 137.15011,54.828984 142.51965,54.828984 L 142.55999,54.828984 C 147.44162,54.828984 152.19919,51.902319 152.19919,45.55276 C 152.19921,40.273427 148.4373,36.599185 142.8423,36.599185 z M 98.961723,40.511333 C 101.5528,40.511338 102.59155,43.145975 102.59155,45.714086 C 102.59211,48.853276 101.21474,50.957169 98.961723,50.957169 L 98.921387,50.957169 C 96.518537,50.957169 95.210894,48.715208 95.210894,45.754417 C 95.210894,43.150464 96.258615,40.511333 98.961723,40.511333 z M 142.64065,40.511333 C 145.23116,40.511338 146.27048,43.145975 146.27048,45.714086 C 146.27076,48.853276 144.89337,50.957169 142.64065,50.957169 L 142.60031,50.957169 C 140.19747,50.957169 138.88982,48.715208 138.88982,45.754417 C 138.88984,43.150464 139.93671,40.511333 142.64065,40.511333 z"/></g><g id="g3298" transform="translate(4,0)"><path id="rect4102" fill="url(#linearGradient3296)" fill-opacity="1" stroke="none" stroke-dasharray="none" stroke-miterlimit="4" stroke-opacity=".308" stroke-width="1" d="M 26.673659,19.001472 C 23.755487,18.975285 20.648493,19.289158 18.083234,20.685869 L 25.017335,22.089534 L 12.131698,20.489356 C 11.106439,20.374637 10.270928,21.663287 9.7735453,22.39834 C 9.0548213,23.460624 8.4119882,24.848881 8.4541008,26.16016 C 8.5230681,28.31043 10.499074,30.061111 12.103627,31.241425 C 14.205228,32.787118 16.8025,33.775572 19.121953,34.9471 L 12.019402,32.027478 L 1.3796314,35.283979 C -1.2360854,45.357998 -0.30714315,56.872758 5.6748438,69 L 17.605987,54.542256 L 39.61545,63.974881 C 40.964172,64.538186 41.712464,62.722185 42.226267,61.813238 C 43.141114,60.194937 43.934739,58.493995 44.528277,56.731972 C 36.482645,51.956316 34.056925,45.61495 34.056936,45.61495 C 37.436483,50.262966 41.496388,53.131427 45.033596,54.907208 C 46.025712,51.064867 45.975071,47.029448 45.258178,43.1445 C 44.991752,41.7001 44.624045,40.272198 44.163327,38.87736 C 43.897052,38.071196 43.61189,36.659601 42.703514,36.350764 L 35.965924,34.104901 L 44.275613,35.648932 C 47.167231,36.125206 45.645095,27.867058 45.230107,26.525113 C 44.73057,24.910122 43.92536,23.38156 42.507003,22.39834 C 41.205519,21.495862 39.640097,21.017583 38.127566,20.601649 C 34.810698,19.68973 31.345785,19.156688 27.908889,19.029545 C 27.501072,19.014462 27.090553,19.005209 26.673659,19.001472 z" opacity="1"/><path id="path3550" fill="url(#linearGradient3293)" fill-opacity="1" stroke="none" stroke-opacity="1" d="M 148.81135,33.171015 L 148.81135,33.775986 L 149.85996,33.775986 L 149.85996,36.599185 L 150.58593,36.599185 L 150.58593,33.775986 L 151.67488,33.775986 L 151.67488,33.171015 L 148.81135,33.171015 z M 152.11853,33.171015 L 152.11853,36.599185 L 152.80417,36.599185 L 152.80417,33.937312 L 153.53012,36.599185 L 154.21577,36.599185 L 154.94173,33.937312 L 154.94173,36.599185 L 155.62736,36.599185 L 155.62736,33.171015 L 154.49808,33.171015 L 153.85277,35.510237 L 153.20748,33.171015 L 152.11853,33.171015 z M 68.713164,36.599185 C 65.596361,36.599185 63.935881,38.240421 63.147425,39.382053 L 63.026428,39.382053 L 62.824771,37.002499 L 57.944677,37.002499 C 58.019728,38.572094 58.105999,40.392239 58.105999,42.568235 L 58.105999,54.466001 L 63.671738,54.466001 L 63.671738,44.302486 C 63.671738,43.839223 63.72605,43.359173 63.913721,42.931218 C 64.251795,42.075262 65.111038,40.995307 66.575588,40.99531 C 68.415469,40.99531 69.237466,42.488928 69.237466,44.665468 L 69.237466,54.466001 L 74.803206,54.466001 L 74.803206,44.262155 C 74.803206,43.833622 74.851929,43.28328 74.964528,42.890886 C 75.377653,41.857099 76.274432,40.995307 77.626406,40.99531 C 79.466286,40.99531 80.328609,42.455304 80.328609,44.98812 L 80.328609,54.466001 L 85.894348,54.466001 L 85.894348,44.181491 C 85.894348,38.973576 83.253262,36.599181 79.723635,36.599185 C 78.37193,36.599185 77.228431,36.951237 76.2148,37.486476 C 75.313208,37.986147 74.508299,38.696676 73.794927,39.624042 L 73.714255,39.624042 C 72.925541,37.804598 71.116294,36.599189 68.713164,36.599185 z M 99.203717,36.599185 C 93.270949,36.599188 89.362847,40.238963 89.362847,45.875411 C 89.362836,51.510736 93.471465,54.828984 98.840726,54.828984 L 98.881062,54.828984 C 103.76212,54.828984 108.52027,51.902319 108.52027,45.55276 C 108.52027,40.273427 104.79871,36.599185 99.203717,36.599185 z M 122.91858,36.599185 C 119.83933,36.599185 117.98275,38.280758 117.23186,39.422385 L 117.1512,39.422385 L 116.86888,37.002499 L 111.90811,37.002499 C 111.98345,38.572094 112.06944,40.392239 112.06943,42.568235 L 112.06943,54.466001 L 117.75617,54.466001 L 117.79649,44.383149 C 117.79649,43.883477 117.80795,43.408768 117.95783,43.052212 C 118.37039,42.052599 119.32488,40.995306 120.90201,40.99531 C 122.96708,40.99531 123.76555,42.539329 123.76555,44.786463 L 123.76555,54.466001 L 129.4926,54.466001 L 129.4926,44.14116 C 129.4926,39.004383 126.67343,36.599189 122.91858,36.599185 z M 142.8423,36.599185 C 136.90981,36.599188 133.00143,40.238963 133.00143,45.875411 C 133.00143,51.510736 137.15011,54.828984 142.51965,54.828984 L 142.55999,54.828984 C 147.44162,54.828984 152.19919,51.902319 152.19919,45.55276 C 152.19921,40.273427 148.4373,36.599185 142.8423,36.599185 z M 98.961723,40.511333 C 101.5528,40.511338 102.59155,43.145975 102.59155,45.714086 C 102.59211,48.853276 101.21474,50.957169 98.961723,50.957169 L 98.921387,50.957169 C 96.518537,50.957169 95.210894,48.715208 95.210894,45.754417 C 95.210894,43.150464 96.258615,40.511333 98.961723,40.511333 z M 142.64065,40.511333 C 145.23116,40.511338 146.27048,43.145975 146.27048,45.714086 C 146.27076,48.853276 144.89337,50.957169 142.64065,50.957169 L 142.60031,50.957169 C 140.19747,50.957169 138.88982,48.715208 138.88982,45.754417 C 138.88984,43.150464 139.93671,40.511333 142.64065,40.511333 z"/></g><rect id="rect4023" width="18" height="60" x="75" y="145" fill="url(#linearGradient4031)" fill-opacity="1" stroke="none" stroke-dasharray="none" stroke-miterlimit="4" stroke-opacity=".308" stroke-width="1" opacity="1"/><flowRoot id="flowRoot3282" fill="#a1bfe2" fill-opacity="1" stroke="none" stroke-linecap="butt" stroke-linejoin="miter" stroke-opacity="1" stroke-width="1" font-family="Myriad" font-size="12" font-style="normal" font-weight="bold" transform="matrix(1.797153,0,0,1.797153,37.53304,-316.27982)" xml:space="preserve" style="-inkscape-font-specification:Myriad Bold"><flowRegion id="flowRegion3284"><rect id="rect3286" width="225" height="24" x="168" y="315" fill="#a1bfe2" fill-opacity="1"/></flowRegion><flowPara id="flowPara3288">menu link</flowPara></flowRoot><rect id="rect3290" width="328" height="285" x="431" y="220" fill="#a1bfe2" fill-opacity="1" stroke="none" stroke-dasharray="none" stroke-miterlimit="4" stroke-opacity=".308" stroke-width="1" opacity="1"/><rect id="rect3332" width="7" height="55" x="183" y="133" fill="url(#linearGradient3340)" fill-opacity="1" stroke="none" stroke-dasharray="none" stroke-miterlimit="4" stroke-opacity=".308" stroke-width="1" opacity="1"/><rect id="rect3356" width="7" height="55" x="223" y="133" fill="#0b1725" fill-opacity="1" stroke="none" stroke-dasharray="none" stroke-miterlimit="4" stroke-opacity="1" stroke-width="1" opacity="1"/><rect id="rect3360" width="328" height="100" x="175" y="458" fill="#1e3c62" fill-opacity="1" stroke="none" stroke-dasharray="none" stroke-miterlimit="4" stroke-opacity=".308" stroke-width="1" opacity="1"/><rect id="rect3362" width="328" height="100" x="114" y="-215" fill="#070f19" fill-opacity="1" stroke="none" stroke-dasharray="none" stroke-miterlimit="4" stroke-opacity=".308" stroke-width="1" opacity="1"/><flowRoot id="flowRoot3433" fill="#a1bfe2" fill-opacity="1" stroke="none" stroke-linecap="butt" stroke-linejoin="miter" stroke-opacity="1" stroke-width="1" font-family="Myriad" font-size="12" font-style="normal" font-weight="bold" transform="matrix(1.797153,0,0,1.797153,-85.46696,-54.27982)" xml:space="preserve" style="-inkscape-font-specification:Myriad Bold"><flowRegion id="flowRegion3435"><rect id="rect3437" width="225" height="24" x="168" y="315" fill="#a1bfe2" fill-opacity="1"/></flowRegion><flowPara id="flowPara3439">menu link</flowPara></flowRoot><flowRoot id="flowRoot3441" fill="#6093ce" fill-opacity="1" stroke="none" stroke-linecap="butt" stroke-linejoin="miter" stroke-opacity="1" stroke-width="1" font-family="Myriad" font-size="12" font-style="normal" font-weight="bold" transform="matrix(1.797153,0,0,1.797153,-85.46696,-85.27982)" xml:space="preserve" style="-inkscape-font-specification:Myriad Bold"><flowRegion id="flowRegion3443"><rect id="rect3445" width="225" height="24" x="168" y="315" fill="#6093ce" fill-opacity="1"/></flowRegion><flowPara id="flowPara3447">menu link</flowPara></flowRoot><rect id="rect3465" width="980" height="20" x="-387" y="772" fill="#fff" fill-opacity="1" stroke="none" stroke-dasharray="none" stroke-miterlimit="4" stroke-opacity="1" stroke-width="1"/><rect id="rect3463" width="220" height="20" x="373" y="772" fill="#a1bfe2" fill-opacity="1" stroke="none" stroke-dasharray="none" stroke-miterlimit="4" stroke-opacity=".308" stroke-width="1"/><g id="g3471" transform="matrix(1,0,0,37.6,2,-28179.2)"><rect id="rect3473" width="980" height="20" x="-387" y="772" fill="#e8f0f8" fill-opacity="1" stroke="none" stroke-dasharray="none" stroke-miterlimit="4" stroke-opacity="1" stroke-width="1" opacity="1"/><rect id="rect3475" width="220" height="20" x="373" y="772" fill="#a1bfe2" fill-opacity="1" stroke="none" stroke-dasharray="none" stroke-miterlimit="4" stroke-opacity=".308" stroke-width="1" opacity="1"/></g><flowRoot id="flowRoot3477" fill="#436a00" fill-opacity="1" stroke="none" stroke-linecap="butt" stroke-linejoin="miter" stroke-opacity="1" stroke-width="1" font-family="Myriad" font-size="12" font-style="normal" font-weight="bold" transform="matrix(1.642556,0,0,1.642556,136.61184,-711.8093)" xml:space="preserve" style="-inkscape-font-specification:Myriad Bold"><flowRegion id="flowRegion3479"><rect id="rect3481" width="527" height="40" x="-285" y="1100" fill="#436a00" fill-opacity="1"/></flowRegion><flowPara id="flowPara3483">Header Header Header Yay</flowPara></flowRoot><path id="path3485" fill="none" fill-rule="evenodd" stroke="#99b9e1" stroke-linecap="butt" stroke-linejoin="miter" stroke-opacity="1" stroke-width="1" d="M -335,1126 L -86,1126"/><rect id="rect3487" width="12" height="200" x="-328" y="539" fill="url(#linearGradient3489)" fill-opacity="1" stroke="none" stroke-dasharray="none" stroke-miterlimit="4" stroke-opacity=".308" stroke-width="1" opacity="1"/><rect id="rect3507" width="12" height="1" x="-328" y="539" fill="#112338" fill-opacity="1" stroke="none" stroke-dasharray="none" stroke-miterlimit="4" stroke-opacity="1" stroke-width="1" opacity="1"/><rect id="rect3511" width="12" height="1" x="-328" y="738" fill="#112338" fill-opacity="1" stroke="none" stroke-dasharray="none" stroke-miterlimit="4" stroke-opacity="1" stroke-width="1" opacity="1"/><rect id="rect3698" width="157" height="200" x="-345" y="256" fill="url(#linearGradient3735)" fill-opacity="1" stroke="none" stroke-dasharray="none" stroke-miterlimit="4" stroke-opacity=".308" stroke-width="1" opacity="1"/><path id="path3615" fill="url(#linearGradient3722)" fill-opacity="1" d="M -434.95,318.95536 C -434.95,300.22576 -410.08928,305.40764 -391.06013,303.59637 C -349.36579,299.62579 -338.77619,271.1678 -318.26061,269.84442 C -333.48097,277.78682 -344.81842,288.61109 -331.55553,296.1073 C -313.55946,304.52497 -316.78892,266.93938 -272.81857,268.47848 C -301.49102,274.92476 -296.07994,283.75826 -290.35412,288.57991 C -284.62579,293.40071 -276.48452,295.35777 -257.77894,281.13046 C -273.25717,310.21496 -306.05102,295.18208 -297.08269,310.87603 C -291.78832,320.14222 -288.534,315.90917 -272.39851,310.77659 C -256.26217,305.6419 -247.45858,323.98176 -233.5224,319.57892 C -219.58876,315.17817 -222.52076,314.44128 -211.51911,318.84329 C -221.78597,318.11144 -233.5224,329.11645 -243.05995,327.64856 C -252.59538,326.1794 -279.00404,314.44128 -276.80093,329.11435 C -274.59782,343.78321 -267.26551,339.38331 -249.6638,334.24778 C -232.05661,329.11477 -220.31849,356.99091 -199.05,346.72153 C -208.58501,358.45418 -222.52118,351.1189 -230.58787,345.25237 C -238.65752,339.38373 -250.46979,339.31674 -248.92648,349.65311 C -247.38106,359.98948 -236.73374,355.07557 -224.9952,355.07557 C -237.46769,358.00967 -240.56739,365.96219 -251.74935,360.53721 C -262.92964,355.11264 -268.72961,345.25237 -278.26673,360.65434 C -287.8051,376.05883 -270.92892,383.39115 -259.19334,376.79067 C -247.46069,370.19187 -232.79309,368.72356 -210.05332,381.19731 C -227.65588,376.05925 -241.59162,373.86162 -248.92606,383.39368 C -256.26174,392.92995 -287.15584,382.02142 -286.49353,398.23486 C -285.8312,414.45125 -266.83449,395.20174 -256.01653,414.34718 C -268.12795,406.35506 -268.89898,409.74168 -269.64893,413.04318 C -272.18236,424.1885 -246.38504,422.33341 -240.02641,440.46766 C -255.07993,426.01073 -266.03903,435.37805 -274.91171,424.67218 C -283.78693,413.96336 -293.5246,417.08201 -292.76916,424.33891 C -289.68801,453.8637 -269.48378,429.90588 -259.16637,450.04017 C -266.79194,436.86028 -280.26717,454.89847 -297.314,440.68169 C -300.2026,438.26793 -312.96539,433.31145 -326.86449,436.29149 C -340.76064,439.26772 -353.00435,428.67856 -358.63115,434.6361 C -364.25794,440.59027 -360.28653,449.19373 -350.35927,447.21013 C -340.4299,445.22443 -338.11555,446.87981 -335.13552,450.51879 C -343.74025,444.23052 -356.64291,459.45426 -367.2325,451.51144 C -374.18184,448.20235 -396.35492,426.03095 -412.23762,430.66469 C -428.122,435.29632 -434.94916,424.86641 -434.94916,416.01184 L -434.94916,318.95536 L -434.95,318.95536 z" clip-path="url(#clipPath3710)" filter="url(#filter4179)" opacity=".521" transform="translate(0,-6)"/></g></svg>